<svg width="24" height="24" viewBox="0 0 24 24" fill="none" xmlns="http://www.w3.org/2000/svg">
<path d="M12.9677 2C12.6114 2 12.3226 2.27441 12.3226 2.6129C12.3226 2.9514 12.6114 3.22581 12.9677 3.22581C17.2435 3.22581 20.7097 6.51868 20.7097 10.5806C20.7097 10.9191 20.9985 11.1935 21.3548 11.1935C21.7112 11.1935 22 10.9191 22 10.5806C22 5.84169 17.9561 2 12.9677 2Z" fill="#E4E5EA"/>
<path d="M4.70912 3.99957C5.07483 3.821 5.71892 3.73049 6.0881 4.05724C6.54956 4.46566 7.26077 5.18162 7.74938 5.80628C8.238 6.43094 8.92205 7.38235 9.01978 7.59378C9.1175 7.8052 9.22608 8.5548 8.73747 9.00648C8.34658 9.36782 7.83625 9.6888 7.62994 9.80412C7.43812 9.96429 7.12396 10.4346 7.40192 11.0342C7.74938 11.7838 8.49859 13.2542 9.7907 14.3497C11.0828 15.4453 12.4509 16.0219 13.3087 16.2045C13.3633 16.2045 13.4333 16.2169 13.5145 16.2312C13.8052 16.2826 14.2383 16.359 14.6117 15.9835C14.9939 15.5991 15.3428 15.1954 15.4695 15.0417C15.6685 14.8367 16.2469 14.4881 16.9679 14.7342C17.8691 15.0417 18.9006 15.7144 19.3675 16.0315C19.741 16.2852 20.5728 16.8868 20.9419 17.1559C21.1663 17.3193 21.5413 17.8056 21.246 18.4437C20.8768 19.2413 19.3024 21 17.8908 21C17.3697 21 12.3315 19.645 7.87968 15.8201C5.03602 13.3769 2.58817 9.13781 2.16833 7.7091C2.00908 7.36954 1.82087 6.53281 2.34206 5.90238C2.86325 5.27195 3.4496 4.61462 4.70912 3.99957Z" fill="#E4E5EA"/>
<path d="M12.9677 6.90323C12.6114 6.90323 12.3226 7.17763 12.3226 7.51613C12.3226 7.85463 12.6114 8.12903 12.9677 8.12903C14.393 8.12903 15.5484 9.22666 15.5484 10.5806C15.5484 10.9191 15.8372 11.1935 16.1935 11.1935C16.5499 11.1935 16.8387 10.9191 16.8387 10.5806C16.8387 8.54966 15.1056 6.90323 12.9677 6.90323Z" fill="#E4E5EA"/>
<path d="M12.3226 5.06452C12.3226 4.72602 12.6114 4.45161 12.9677 4.45161C16.5309 4.45161 19.4194 7.19567 19.4194 10.5806C19.4194 10.9191 19.1305 11.1935 18.7742 11.1935C18.4179 11.1935 18.129 10.9191 18.129 10.5806C18.129 7.87267 15.8182 5.67742 12.9677 5.67742C12.6114 5.67742 12.3226 5.40301 12.3226 5.06452Z" fill="#E4E5EA"/>
</svg>
