<svg width="24" height="24" viewBox="0 0 24 24" fill="none" xmlns="http://www.w3.org/2000/svg">
<path fill-rule="evenodd" clip-rule="evenodd" d="M18.8025 5.1906C17.9169 4.3034 16.8632 3.59991 15.7025 3.1209C14.5417 2.64189 13.297 2.39688 12.0405 2.40005C6.7714 2.40005 2.48202 6.66801 2.47989 11.9142C2.47989 13.5909 2.91969 15.2272 3.75563 16.6707L2.40002 21.6L7.46783 20.2763C8.86965 21.0358 10.4402 21.434 12.0362 21.4347H12.0405C17.3085 21.4347 21.5979 17.1667 21.6 11.9206C21.6036 10.6705 21.3582 9.43205 20.8781 8.2769C20.3979 7.12176 19.6925 6.07278 18.8025 5.1906ZM12.0405 19.829H12.0373C10.6141 19.8292 9.21706 19.4481 7.99282 18.7258L7.70317 18.5541L4.69593 19.3394L5.49779 16.4217L5.3093 16.1228C4.5136 14.862 4.09238 13.403 4.09426 11.9142C4.09639 7.55403 7.66058 4.00676 12.0437 4.00676C13.0875 4.00446 14.1215 4.20822 15.0857 4.60626C16.0499 5.0043 16.9252 5.58872 17.661 6.32568C18.4007 7.05913 18.9869 7.93122 19.386 8.89154C19.785 9.85186 19.9888 10.8814 19.9856 11.9206C19.9835 16.2807 16.4193 19.829 12.0405 19.829ZM16.3991 13.9056C16.1595 13.7859 14.986 13.2114 14.7666 13.1319C14.5483 13.0525 14.3896 13.0132 14.2299 13.2506C14.0701 13.488 13.6122 14.0233 13.4727 14.1822C13.3332 14.3412 13.1937 14.3603 12.9552 14.2416C12.7167 14.1229 11.9468 13.8717 11.0341 13.062C10.3239 12.4314 9.84467 11.6535 9.70517 11.415C9.56567 11.1765 9.69026 11.0483 9.81059 10.9296C9.91814 10.8236 10.0491 10.6519 10.1684 10.5131C10.2877 10.3743 10.3271 10.2757 10.4069 10.1167C10.4868 9.95774 10.4474 9.8189 10.3867 9.7002C10.3271 9.58044 9.84893 8.41038 9.64979 7.93451C9.45705 7.47348 9.26004 7.53496 9.11309 7.5286C8.96089 7.5224 8.80857 7.51957 8.65625 7.52012C8.53513 7.52319 8.41594 7.55113 8.30618 7.6022C8.19641 7.65326 8.09843 7.72635 8.01838 7.81687C7.79901 8.05533 7.18244 8.62977 7.18244 9.79982C7.18244 10.9699 8.03861 12.1007 8.15788 12.2597C8.27715 12.4187 9.84254 14.8192 12.2385 15.8494C12.8093 16.0942 13.2544 16.2404 13.6005 16.3507C14.1724 16.5319 14.6931 16.5054 15.1052 16.445C15.5642 16.3772 16.5183 15.8706 16.7175 15.3152C16.9166 14.7598 16.9166 14.284 16.857 14.1844C16.7973 14.0847 16.6365 14.0243 16.3991 13.9056Z" fill="#E4E5EA"/>
</svg>
